<?xml version="1.0" standalone="no"?>
<!DOCTYPE svg PUBLIC "-//W3C//DTD SVG 20010904//EN"
 "http://www.w3.org/TR/2001/REC-SVG-20010904/DTD/svg10.dtd">
<svg version="1.0" xmlns="http://www.w3.org/2000/svg"
 width="209.000000pt" height="190.000000pt" viewBox="0 0 209.000000 190.000000"
 preserveAspectRatio="xMidYMid meet">

<g transform="translate(0.000000,190.000000) scale(0.100000,-0.100000)"
fill="#000000" stroke="none">
<path d="M473 1844 c-163 -35 -307 -150 -381 -304 -113 -232 -91 -479 64 -712
27 -40 102 -128 168 -195 155 -160 623 -563 675 -582 70 -26 89 -14 365 222
403 345 532 483 622 662 58 118 78 210 71 340 -10 178 -61 299 -177 415 -83
84 -162 129 -271 155 -182 43 -352 -6 -500 -143 l-69 -64 -70 66 c-142 134
-310 181 -497 140z m289 -178 c56 -28 128 -97 206 -194 27 -34 39 -42 67 -42
51 0 63 8 104 69 51 75 120 137 189 169 50 24 69 27 162 27 93 0 111 -3 163
-27 208 -98 306 -361 223 -600 -62 -178 -201 -327 -704 -755 l-131 -112 -218
187 c-442 379 -575 531 -628 716 -22 77 -16 249 11 316 53 131 137 217 257
260 40 15 74 19 147 17 82 -2 103 -6 152 -31z"/>
</g>
</svg>
