<?xml version="1.0" standalone="no"?>
<!DOCTYPE svg PUBLIC "-//W3C//DTD SVG 20010904//EN"
 "http://www.w3.org/TR/2001/REC-SVG-20010904/DTD/svg10.dtd">
<svg version="1.0" xmlns="http://www.w3.org/2000/svg"
 width="225.000000pt" height="225.000000pt" viewBox="0 0 225.000000 225.000000"
 preserveAspectRatio="xMidYMid meet">

<g transform="translate(0.000000,225.000000) scale(0.100000,-0.100000)"
fill="#ff4040" stroke="none">
<path d="M523 2180 c-22 -5 -75 -23 -116 -40 -218 -91 -366 -295 -398 -551
-33 -262 105 -552 447 -939 56 -63 124 -135 150 -160 144 -132 189 -171 299
-259 184 -148 218 -171 229 -162 6 4 43 32 81 61 318 241 558 473 741 715 273
362 344 620 248 901 -63 183 -189 320 -363 394 -159 68 -301 63 -456 -14 -89
-44 -210 -139 -236 -183 -7 -13 -15 -23 -18 -23 -3 0 -44 36 -90 81 -154 149
-340 214 -518 179z"/>
</g>
</svg>
