<?xml version="1.0" standalone="no"?>
<!DOCTYPE svg PUBLIC "-//W3C//DTD SVG 20010904//EN"
 "http://www.w3.org/TR/2001/REC-SVG-20010904/DTD/svg10.dtd">
<svg version="1.0" xmlns="http://www.w3.org/2000/svg"
 width="13pt" height="15pt" viewBox="0 0 225.000000 225.000000"
 preserveAspectRatio="xMidYMid meet">

<g transform="translate(0.000000,225.000000) scale(0.100000,-0.100000)"
fill="#000000" stroke="none">
<path d="M557 1766 c-297 -166 -543 -310 -549 -319 -5 -10 -6 -26 -3 -37 13
-42 99 -181 117 -191 19 -10 65 8 156 63 l32 20 0 -549 c0 -414 3 -552 12
-561 18 -18 551 -17 567 1 7 9 12 102 13 273 l3 259 220 0 220 0 3 -259 c1
-171 6 -264 13 -273 16 -18 549 -19 567 -1 9 9 12 147 12 561 l0 549 33 -20
c90 -55 136 -73 155 -63 18 10 104 149 117 191 3 11 2 27 -3 37 -6 9 -99 67
-209 128 l-198 111 -3 129 c-3 165 -3 165 -141 165 -123 0 -141 -10 -141 -81
0 -27 -2 -49 -5 -49 -3 0 -94 50 -202 110 -119 67 -207 110 -222 109 -14 -1
-268 -137 -564 -303z"/>
</g>
</svg>
