<svg width="45" height="45" viewBox="0 0 45 45" fill="none" xmlns="http://www.w3.org/2000/svg">
<path d="M23.7396 12.6979C23.7396 11.7832 22.998 11.0417 22.0833 11.0417C21.1686 11.0417 20.4271 11.7832 20.4271 12.6979V20.4271H12.6979C11.7832 20.4271 11.0417 21.1686 11.0417 22.0833C11.0417 22.998 11.7832 23.7396 12.6979 23.7396H20.4271V31.4687C20.4271 32.3834 21.1686 33.125 22.0833 33.125C22.998 33.125 23.7396 32.3834 23.7396 31.4687V23.7396H31.4688C32.3834 23.7396 33.125 22.998 33.125 22.0833C33.125 21.1686 32.3834 20.4271 31.4688 20.4271H23.7396V12.6979ZM44.1667 22.0833C44.1667 9.88704 34.2795 0 22.0833 0C9.88704 0 0 9.88704 0 22.0833C0 25.6615 0.853234 29.1191 2.46143 32.2244L0.103681 40.6667C-0.0320427 41.1521 -0.0321091 41.666 0.103593 42.1518C0.513614 43.6201 2.03635 44.478 3.50471 44.068L11.9534 41.711C15.056 43.3156 18.5096 44.1667 22.0833 44.1667C34.2795 44.1667 44.1667 34.2795 44.1667 22.0833ZM3.3125 22.0833C3.3125 11.7165 11.7165 3.3125 22.0833 3.3125C32.4501 3.3125 40.8542 11.7165 40.8542 22.0833C40.8542 32.4501 32.4501 40.8542 22.0833 40.8542C18.8419 40.8542 15.7235 40.0329 12.9565 38.4901L12.3613 38.1582L3.55754 40.6143L6.01479 31.8159L5.68211 31.2203C4.1357 28.4508 3.3125 25.3287 3.3125 22.0833Z" fill="#023B96"/>
</svg>
